# xmcd
#
# Track frame offsets:
#	183
#	12530
#	27498
#	40798
#	55180
#	67560
#	82115
#	95190
#	108700
#	121580
#	133760
#	146778
#	159190
#	170383
#	183400
#	196615
#
# Disc length: 2784 seconds
#
# Revision: 1
# Processed by: cddbd v1.4PL0 Copyright (c) Steve Scherf et al.
# Submitted via: audiograbber 1.82.02
#
DISCID=d50ade10
DTITLE=Ivory Joe Hunter - 7th Street Boogie
DYEAR=1977
DGENRE=Blues
TTITLE0=7th Street Boogie
TTITLE1=Blues at Sunrise
TTITLE2=Boogin' in the Basement
TTITLE3=Reconversion Blues
TTITLE4=High Cost Low Pay Blues
TTITLE5=Grieving Blues
TTITLE6=Siesta with Sonny
TTITLE7=Send me Pretty Momma
TTITLE8=I Quit my Pretty Mamma
TTITLE9=Woo Wee blues
TTITLE10=Don't Fall in Love with Me
TTITLE11=What Did You Do to Me
TTITLE12=I Got Your Water On
TTITLE13=S.P. Blues
TTITLE14=Leave Her Alone
TTITLE15=Don't You Believe Her
EXTD=
EXTT0=
EXTT1=
EXTT2=
EXTT3=
EXTT4=
EXTT5=
EXTT6=
EXTT7=
EXTT8=
EXTT9=
EXTT10=
EXTT11=
EXTT12=
EXTT13=
EXTT14=
EXTT15=
PLAYORDER=
